<svg width="320" height="19" fill="none" xmlns="http://www.w3.org/2000/svg"><path d="M15.975 13.573l-.914 4.571H0v-.978h.793c.253.006.505-.002.757-.023a.972.972 0 00.605-.377 1.6 1.6 0 00.293-.718c.047-.332.07-.666.066-1.001V2.307c0-.13-.01-.26-.027-.39a.834.834 0 00-.229-.413.987.987 0 00-.43-.304 3.033 3.033 0 00-.614-.123L.169.983V0h9.34v.983l-.965.094a3.404 3.404 0 00-.66.048.971.971 0 00-.458.246 1.73 1.73 0 00-.32.378.805.805 0 00-.105.406v13.006a3.66 3.66 0 00.085.86c.071.232.198.443.37.614a1.184 1.184 0 00.86.35c.377.018.724.03 1.04.03h1.513a4.61 4.61 0 001.218-.172c.321-.071.627-.202.9-.386.372-.27.72-.57 1.04-.898.292-.33.54-.695.736-1.088l.437-.914.775.016zM26.514 1.022l-1.035.12-.434.04c-.242.052-.464.17-.643.34a1.102 1.102 0 00-.292.457 3.055 3.055 0 00-.11.97v11.947c-.006.348.019.696.075 1.04.052.267.185.512.382.7a1.457 1.457 0 001.058.473l.85.057v.983h-9.394v-.967l1.098-.073a1.372 1.372 0 001.417-1.25 5.25 5.25 0 00.096-.984V2.953a8.398 8.398 0 00-.04-.946.882.882 0 00-.283-.54 1.166 1.166 0 00-.491-.304 6.01 6.01 0 00-.832-.123l-.7-.075V0h9.278v1.022zm15.301 3.156l-.738.037-.302-.944a3.71 3.71 0 00-.457-.926 2.72 2.72 0 00-.736-.663 3.06 3.06 0 00-.686-.35 2.325 2.325 0 00-.725-.102h-3.446v7.428h1.929c.404.004.808-.018 1.209-.066.296-.032.58-.132.832-.293a1.87 1.87 0 00.87-1.248l.17-.925h.775v6.237h-.739l-.19-.685a8.624 8.624 0 00-.189-.7 1.276 1.276 0 00-.382-.528 1.828 1.828 0 00-.818-.491 5.056 5.056 0 00-1.122-.096h-2.345v5.68c-.001.187.012.374.038.56a2 2 0 00.174.55.657.657 0 00.412.382c.228.061.465.09.701.085l1.143.091v.938h-9.291v-.983l1.037-.057a2.68 2.68 0 00.579-.048.856.856 0 00.395-.229.915.915 0 00.265-.434c.046-.179.068-.362.067-.547V2.718a4.459 4.459 0 00-.037-.707 1.008 1.008 0 00-.215-.425.71.71 0 00-.343-.272 3.336 3.336 0 00-.503-.084l-1.245-.215V0h13.913v4.178zm17.259 9.308l-.775 4.663H43.271v-.983l.944-.04c.203.007.406-.009.606-.045.166-.058.315-.156.436-.283a.971.971 0 00.313-.5c.044-.269.062-.54.055-.812V2.743a4.518 4.518 0 00-.036-.7.852.852 0 00-.229-.413.914.914 0 00-.352-.259 3.69 3.69 0 00-.603-.112l-1.267-.228V0h13.943v4.14l-.686.132-.322-.983a3.063 3.063 0 00-.434-.926 2.744 2.744 0 00-.738-.662 2.64 2.64 0 00-1.456-.458h-3.429V8.15h1.947c.311 0 .621-.028.926-.087.275-.048.538-.147.777-.29a1.7 1.7 0 00.558-.54c.157-.253.258-.537.295-.832l.112-.795h.775v6.304h-.736l-.151-.736a4.016 4.016 0 00-.208-.739 1.861 1.861 0 00-.368-.528 1.72 1.72 0 00-.793-.473 4.45 4.45 0 00-1.097-.114h-1.946v5.364c0 .846.145 1.434.435 1.763.391.457 1.166.685 2.324.685a6.898 6.898 0 002.654-.445 3.927 3.927 0 001.93-1.749l.81-1.463.814.012zm3.118 1.808a1.428 1.428 0 011.115.434c.267.295.41.681.398 1.079a1.74 1.74 0 01-.434 1.18 1.566 1.566 0 01-1.248.502 1.434 1.434 0 01-1.116-.432A1.509 1.509 0 0160.51 17a1.687 1.687 0 01.986-1.566c.219-.097.457-.145.696-.14zm13.422-7.92l-1.17 1.399-2.174-.89a1.829 1.829 0 00-.499-.112.884.884 0 00-.457.151c-.315.215-.54.704-.672 1.465a15.683 15.683 0 00-.196 2.62v3.611a6.05 6.05 0 00.045.83.934.934 0 00.501.624c.143.077.297.132.457.162.2.033.403.048.606.046h.686v.869h-7.58v-.871l.686-.076c.18-.025.356-.067.528-.123.173-.062.333-.155.473-.274a.783.783 0 00.274-.494 5.28 5.28 0 00.048-.814V7.98a2.775 2.775 0 00-.048-.587.807.807 0 00-.228-.386.928.928 0 00-.416-.247 2.027 2.027 0 00-.558-.066h-.686V5.86h.944c.457 0 .807 0 1.022-.03a8.29 8.29 0 00.965-.17c.4-.086.794-.197 1.181-.33.415-.15.822-.32 1.219-.51v2.704l1.664-2.099a1.389 1.389 0 011.097-.53c.127-.004.253.01.377.039l.354.094a.665.665 0 01.359.313l1.198 2.032zm14.852 4.034a6.544 6.544 0 01-2.267 5.093 7.648 7.648 0 01-5.257 1.931c-1.865 0-3.434-.587-4.707-1.76-1.336-1.236-2.004-2.82-2.004-4.752a6.884 6.884 0 012.032-4.942 6.727 6.727 0 015.028-2.1c2.134 0 3.861.59 5.182 1.769 1.321 1.18 1.986 2.766 1.993 4.761zm-3.657.786c0-1.688-.271-3.136-.814-4.343-.643-1.435-1.544-2.154-2.704-2.155-1.12 0-1.983.61-2.59 1.829a8.216 8.216 0 00-.754 3.657c0 1.676.259 3.069.775 4.178.642 1.388 1.619 2.082 2.93 2.08 1.12 0 1.952-.56 2.494-1.682.448-.905.672-2.093.672-3.564h-.009zM96.228 0h2.057v18.057h-2.057z" fill="#231F20"/><path d="M112.308 13.047c0-.53-.199-.96-.595-1.29-.381-.33-.868-.628-1.464-.893a30.937 30.937 0 00-1.909-.843 11.334 11.334 0 01-1.91-1.067 5.856 5.856 0 01-1.463-1.587c-.38-.629-.57-1.43-.57-2.406 0-.844.14-1.571.421-2.183a4.146 4.146 0 011.191-1.563 5.295 5.295 0 011.86-.917c.711-.199 1.504-.298 2.38-.298 1.009 0 1.96.09 2.852.273.893.165 1.629.413 2.208.744l-1.067 2.852c-.364-.231-.909-.438-1.637-.62a8.919 8.919 0 00-2.356-.297c-.793 0-1.405.157-1.835.47-.413.315-.62.737-.62 1.266 0 .496.19.91.571 1.24.397.33.884.637 1.463.918.595.28 1.232.57 1.909.868a9.387 9.387 0 011.91 1.091 5.083 5.083 0 011.463 1.563c.397.612.595 1.38.595 2.307 0 .926-.157 1.728-.471 2.406a4.385 4.385 0 01-1.289 1.662c-.546.446-1.216.777-2.009.992-.777.215-1.637.322-2.579.322-1.24 0-2.331-.116-3.274-.347-.942-.232-1.637-.463-2.083-.695l1.091-2.902c.182.1.414.207.695.323a11.28 11.28 0 002.132.57c.414.066.835.1 1.265.1 1.009 0 1.777-.166 2.306-.497.546-.347.819-.868.819-1.562zm17.986-9.674h-5.059V17.71h-3.397V3.373h-5.084V.347h13.54v3.026zm.256 5.656c0-2.894.636-5.118 1.909-6.673C133.732.786 135.551 0 137.915 0c1.24 0 2.323.215 3.249.645a6.112 6.112 0 012.306 1.835c.612.794 1.067 1.745 1.364 2.853.298 1.108.447 2.34.447 3.696 0 2.893-.645 5.126-1.935 6.697-1.273 1.554-3.083 2.331-5.431 2.331-1.256 0-2.348-.215-3.273-.645a6.123 6.123 0 01-2.307-1.835c-.595-.794-1.041-1.745-1.339-2.853-.298-1.108-.446-2.34-.446-3.695zm3.571 0c0 .876.074 1.686.223 2.43.149.728.372 1.356.67 1.885.314.53.71.943 1.19 1.24.479.298 1.05.447 1.711.447 1.207 0 2.141-.471 2.802-1.414.662-.942.992-2.472.992-4.588 0-.844-.074-1.63-.223-2.357-.132-.727-.347-1.364-.645-1.91a3.32 3.32 0 00-1.165-1.265c-.48-.314-1.066-.47-1.761-.47-1.207 0-2.141.487-2.802 1.462-.662.96-.992 2.473-.992 4.54zM147.709.52c.38-.065.785-.123 1.215-.173a19.54 19.54 0 011.315-.149c.446-.033.876-.057 1.289-.074a27.87 27.87 0 011.141-.025c.81 0 1.604.075 2.381.223.793.15 1.496.406 2.108.77a3.968 3.968 0 011.488 1.512c.38.629.57 1.422.57 2.382 0 1.422-.331 2.58-.992 3.472-.661.893-1.546 1.513-2.654 1.86l1.216.77 3.968 6.622h-3.919l-3.943-6.796-1.785-.323v7.119h-3.398V.52zm5.208 2.605c-.347 0-.694.009-1.042.025-.33.017-.587.05-.768.1v5.034h1.438c.942 0 1.695-.215 2.257-.644.562-.43.843-1.141.843-2.134 0-.744-.232-1.322-.695-1.736-.462-.43-1.14-.645-2.033-.645zM162.975.347h3.397V17.71h-3.397V.347zm6.724 0h10.292v3.026h-6.894v4.043h6.274v3.026h-6.274v4.242h7.018v3.026h-10.416V.347zm20.446 12.7c0-.53-.198-.96-.595-1.29-.38-.33-.868-.628-1.463-.893a31.207 31.207 0 00-1.909-.843 11.295 11.295 0 01-1.91-1.067 5.84 5.84 0 01-1.463-1.587c-.38-.629-.571-1.43-.571-2.406 0-.844.141-1.571.422-2.183a4.154 4.154 0 011.19-1.563 5.295 5.295 0 011.86-.917c.711-.199 1.505-.298 2.381-.298 1.009 0 1.959.09 2.852.273.893.165 1.629.413 2.207.744l-1.066 2.852c-.364-.231-.909-.438-1.637-.62a8.924 8.924 0 00-2.356-.297c-.793 0-1.405.157-1.835.47-.413.315-.62.737-.62 1.266 0 .496.19.91.57 1.24.397.33.885.637 1.464.918.595.28 1.231.57 1.909.868a9.414 9.414 0 011.91 1.091 5.083 5.083 0 011.463 1.563c.397.612.595 1.38.595 2.307 0 .926-.157 1.728-.471 2.406a4.398 4.398 0 01-1.29 1.662c-.545.446-1.215.777-2.009.992-.777.215-1.636.322-2.579.322-1.24 0-2.331-.116-3.273-.347-.943-.232-1.637-.463-2.083-.695l1.091-2.902c.182.1.413.207.694.323a11.3 11.3 0 002.133.57c.413.066.835.1 1.265.1 1.008 0 1.777-.166 2.306-.497.546-.347.818-.868.818-1.562zm23.363-9.674h-5.059V17.71h-3.397V3.373h-5.084V.347h13.54v3.026zm.256 5.656c0-2.894.636-5.118 1.909-6.673C216.946.786 218.765 0 221.129 0c1.24 0 2.323.215 3.249.645a6.112 6.112 0 012.306 1.835c.612.794 1.067 1.745 1.364 2.853.298 1.108.447 2.34.447 3.696 0 2.893-.645 5.126-1.935 6.697-1.273 1.554-3.083 2.331-5.431 2.331-1.256 0-2.347-.215-3.273-.645a6.123 6.123 0 01-2.307-1.835c-.595-.794-1.041-1.745-1.339-2.853-.297-1.108-.446-2.34-.446-3.695zm3.571 0c0 .876.074 1.686.223 2.43.149.728.372 1.356.67 1.885.314.53.711.943 1.19 1.24.48.298 1.05.447 1.711.447 1.207 0 2.141-.471 2.803-1.414.661-.942.992-2.472.992-4.588 0-.844-.075-1.63-.224-2.357-.132-.727-.347-1.364-.644-1.91a3.338 3.338 0 00-1.166-1.265c-.479-.314-1.066-.47-1.761-.47-1.207 0-2.141.487-2.802 1.462-.661.96-.992 2.473-.992 4.54zM237.228.347h3.398V17.71h-3.398V.347zm11.04 8.31l-1.364-2.729h-.124l.397 2.729v9.053h-3.224V.223h2.48l6.571 9.252 1.315 2.654h.124l-.397-2.654V.347h3.224v17.487h-2.48l-6.522-9.177zm19.473 4.39c0-.53-.198-.96-.595-1.29-.38-.33-.868-.628-1.463-.893a31.248 31.248 0 00-1.91-.843 11.334 11.334 0 01-1.91-1.067 5.856 5.856 0 01-1.463-1.587c-.38-.629-.57-1.43-.57-2.406 0-.844.14-1.571.421-2.183a4.156 4.156 0 011.191-1.563 5.295 5.295 0 011.86-.917c.711-.199 1.504-.298 2.381-.298 1.008 0 1.959.09 2.852.273.892.165 1.628.413 2.207.744l-1.067 2.852c-.363-.231-.909-.438-1.636-.62a8.93 8.93 0 00-2.356-.297c-.794 0-1.406.157-1.836.47-.413.315-.62.737-.62 1.266 0 .496.191.91.571 1.24.397.33.884.637 1.463.918.595.28 1.232.57 1.91.868.694.298 1.33.661 1.909 1.091a5.083 5.083 0 011.463 1.563c.397.612.595 1.38.595 2.307 0 .926-.157 1.728-.471 2.406a4.385 4.385 0 01-1.289 1.662c-.546.446-1.215.777-2.009.992-.777.215-1.637.322-2.579.322-1.24 0-2.331-.116-3.274-.347-.942-.232-1.637-.463-2.083-.695l1.091-2.902c.182.1.414.207.695.323a11.28 11.28 0 002.132.57c.414.066.835.1 1.265.1 1.009 0 1.778-.166 2.307-.497.545-.347.818-.868.818-1.562zM273.402.52a21.305 21.305 0 012.282-.297A25.647 25.647 0 01278.188.1c.86 0 1.72.075 2.579.223a6.166 6.166 0 012.356.844c.695.413 1.257 1 1.687 1.76.446.745.669 1.72.669 2.928 0 1.091-.19 2.017-.57 2.778a5.3 5.3 0 01-1.513 1.835 6.084 6.084 0 01-2.157 1.042 9.449 9.449 0 01-2.48.322h-.967l-.596-.05a4.126 4.126 0 01-.396-.049v5.978h-3.398V.52zm5.059 2.506c-.331 0-.645.017-.942.05a6.03 6.03 0 00-.719.074v5.63c.066.017.165.034.297.05.132.017.273.033.422.05h.744a7 7 0 001.314-.124 3.414 3.414 0 001.19-.447c.348-.231.62-.545.819-.942.215-.397.322-.918.322-1.563 0-.546-.099-.992-.297-1.34a2.369 2.369 0 00-.794-.867 2.924 2.924 0 00-1.091-.447 6.431 6.431 0 00-1.265-.124zm9.48-2.679h3.398V17.71h-3.398V.347zm6.725.173c.38-.065.785-.123 1.215-.173a18.77 18.77 0 011.314-.149c.447-.033.877-.057 1.29-.074.413-.017.793-.025 1.141-.025.81 0 1.603.075 2.38.223.794.15 1.497.406 2.108.77a3.954 3.954 0 011.488 1.512c.381.629.571 1.422.571 2.382 0 1.422-.331 2.58-.992 3.472-.662.893-1.546 1.513-2.654 1.86l1.215.77 3.968 6.622h-3.918l-3.943-6.796-1.786-.323v7.119h-3.397V.52zm5.208 2.605c-.348 0-.695.009-1.042.025a3.8 3.8 0 00-.769.1v5.034h1.439c.942 0 1.694-.215 2.256-.644.562-.43.844-1.141.844-2.134 0-.744-.232-1.322-.695-1.736-.463-.43-1.141-.645-2.033-.645zm9.71-2.778h10.292v3.026h-6.894v4.043h6.274v3.026h-6.274v4.242H320v3.026h-10.416V.347z" fill="#000"/></svg>